<svg width="51" height="50" viewBox="0 0 51 50" xmlns="http://www.w3.org/2000/svg" class="hover">
    <g clip-path="url(#clip0_51_88)">
    <path d="M16.9035 25.0156C16.8953 20.4139 20.6727 16.6757 25.339 16.6677C30.0062 16.6587 33.7983 20.3815 33.8074 24.984C33.8164 29.5866 30.0389 33.3239 25.371 33.3328C20.7047 33.3416 16.9125 29.6181 16.9035 25.0156ZM12.3367 25.0245C12.3507 32.1146 18.1909 37.8494 25.3801 37.8356C32.5701 37.8219 38.3898 32.0652 38.3759 24.9751C38.3619 17.8875 32.5209 12.1493 25.33 12.1632C18.1407 12.177 12.3227 17.9361 12.3367 25.0245ZM35.821 11.6366C35.8242 13.2923 37.1895 14.6329 38.8688 14.6297C40.5488 14.6264 41.9085 13.281 41.906 11.6253C41.9027 9.96965 40.5374 8.62825 38.8573 8.63157C37.1773 8.63479 35.8177 9.98098 35.821 11.6366ZM15.1504 45.3671C12.6784 45.2611 11.336 44.856 10.4414 44.5166C9.25674 44.0647 8.41138 43.5228 7.52165 42.6521C6.6336 41.778 6.0823 40.9469 5.61976 39.7813C5.2723 38.8992 4.85413 37.5773 4.73824 35.14C4.61255 32.5049 4.58383 31.7144 4.57155 25.0391C4.55838 18.3655 4.58304 17.5748 4.69972 14.9374C4.8056 12.5018 5.21892 11.1765 5.56231 10.2952C6.0207 9.12561 6.56872 8.29368 7.4535 7.41653C8.33987 6.53928 9.18275 5.99739 10.3658 5.54133C11.2597 5.197 12.6003 4.78792 15.0716 4.67219C17.7456 4.54739 18.5466 4.52073 25.3152 4.50774C32.0853 4.49475 32.8871 4.51829 35.5622 4.63411C38.0324 4.74016 39.3764 5.14358 40.2695 5.48459C41.4549 5.93655 42.3003 6.47532 43.1892 7.34924C44.0781 8.22327 44.6294 9.05266 45.0919 10.2216C45.441 11.1004 45.856 12.424 45.9726 14.8597C46.0999 17.4962 46.1287 18.2868 46.141 24.9605C46.1541 31.6358 46.1294 32.4264 46.0121 35.0622C45.9044 37.4994 45.4944 38.824 45.1495 39.7068C44.691 40.8741 44.1431 41.7076 43.2574 42.5848C42.3718 43.4587 41.5289 44.0038 40.3451 44.4599C39.4528 44.8033 38.1105 45.2132 35.641 45.329C32.967 45.453 32.1659 45.4814 25.3949 45.4935C18.6262 45.5065 17.8253 45.4814 15.1504 45.3671ZM14.8546 0.173364C12.1567 0.29895 10.3141 0.724927 8.70376 1.34709C7.03691 1.98782 5.62392 2.84641 4.21835 4.23801C2.811 5.6304 1.94672 7.026 1.30183 8.67112C0.677541 10.2628 0.254415 12.0805 0.135262 14.7422C0.017001 17.4088 -0.0101377 18.2593 0.00303545 25.048C0.0162086 31.8359 0.0465168 32.688 0.175475 35.3554C0.304434 38.0147 0.734988 39.8307 1.36591 41.4191C2.01655 43.0626 2.88657 44.4551 4.29878 45.8418C5.71019 47.2285 7.12655 48.0799 8.79588 48.7166C10.4086 49.3313 12.2528 49.7501 14.9516 49.8667C17.6561 49.9842 18.5195 50.0101 25.4031 49.9972C32.29 49.9842 33.1535 49.9542 35.8579 49.8279C38.5558 49.7007 40.3968 49.2747 42.0087 48.6541C43.6755 48.0111 45.0885 47.1548 46.4943 45.7624C47.8999 44.3707 48.7642 42.9743 49.409 41.3284C50.0334 39.7384 50.4581 37.9198 50.5755 35.2607C50.6939 32.5924 50.7219 31.7403 50.7086 24.9524C50.6955 18.1637 50.6644 17.3132 50.5362 14.6475C50.408 11.9858 49.9759 10.1705 49.3458 8.58127C48.6943 6.93782 47.8252 5.54612 46.4138 4.15862C45.0024 2.77268 43.586 1.91887 41.9167 1.28469C40.3032 0.669067 38.4597 0.249536 35.761 0.134497C33.0564 0.0162354 32.193 -0.00964355 25.3069 0.00324708C18.4225 0.0162354 17.5591 0.0453369 14.8546 0.173364Z" fill="#FF8800"/>
    </g>
    <defs>
    <clipPath id="clip0_51_88">
    <rect width="50.7117" height="50" fill="white"/>
    </clipPath>
    </defs>
    </svg>
    