<svg width="351" height="205" viewBox="0 0 351 205" xmlns="http://www.w3.org/2000/svg">
    <path fill-rule="evenodd" clip-rule="evenodd" d="M118.48 0.0237349C117.056 0.0415304 115.609 0.243207 114.269 0.747404C113.047 1.19821 111.914 1.91595 111.065 2.90655C110.075 4.06323 109.547 5.5165 109.505 7.03502C109.493 7.42058 109.511 7.80614 109.571 8.1917C109.66 8.73149 109.832 9.25941 110.081 9.75174C110.615 10.8135 111.469 11.6499 112.388 12.3914C112.323 12.4032 112.258 12.4151 112.192 12.4329C111.748 12.5396 111.315 12.6998 110.887 12.8778C110.217 13.1565 109.571 13.5125 108.995 13.9633C108.278 14.5208 107.678 15.2267 107.239 16.0275C107.133 16.2114 107.038 16.4071 106.949 16.6088C106.878 16.7571 106.818 16.9113 106.753 17.0655C106.717 17.1427 106.688 17.2257 106.658 17.3028C106.605 17.4333 106.551 17.5579 106.486 17.6824C106.48 17.6824 106.48 17.6884 106.474 17.6943C106.462 17.7002 106.456 17.7121 106.445 17.718C106.421 17.7358 106.397 17.7536 106.373 17.7714C106.302 17.8248 106.231 17.8663 106.16 17.9079C106.106 17.9375 106.047 17.9672 105.994 17.9968C105.881 18.0502 105.768 18.0977 105.65 18.1451C104.926 18.4298 104.155 18.59 103.39 18.7205C102.607 18.8629 101.818 18.9756 101.029 19.0942C98.2351 19.5035 95.3286 19.9543 92.8966 21.4787C92.25 21.8821 91.645 22.3685 91.1111 22.9201C90.7967 23.2464 90.512 23.5964 90.2925 23.9938C90.0197 24.4743 89.8358 25.0022 89.6756 25.5301C89.5036 26.0995 89.3494 26.669 89.1892 27.2384C89.1774 27.2859 89.1596 27.3274 89.1477 27.3749C88.9757 27.3511 88.7977 27.3155 88.6317 27.274C88.1571 27.1613 87.6945 27.013 87.2377 26.8588C86.6445 26.6631 86.0573 26.4554 85.4641 26.2656C84.3786 25.9097 83.2694 25.6013 82.1305 25.4649C80.5467 25.2632 78.9274 25.4055 77.4385 25.9868C76.3708 26.408 75.3861 27.0308 74.5498 27.8079C73.9803 28.3358 73.488 28.9349 73.0313 29.5577C72.5804 30.1746 72.1771 30.8212 71.7381 31.444C71.4653 31.8414 71.1687 32.2626 70.7594 32.5295C70.6526 32.6007 70.5281 32.6541 70.4035 32.6778C70.362 32.6838 70.3145 32.6897 70.273 32.6897C70.2671 32.6956 70.2611 32.6956 70.2552 32.6956C70.1366 32.6897 70.0239 32.6897 69.9052 32.6897C69.8993 32.6897 69.8934 32.6837 69.8875 32.6837C69.8341 32.6778 69.7807 32.6778 69.7273 32.6719C69.5731 32.6541 69.4188 32.6363 69.2587 32.6126C68.5943 32.5177 67.93 32.405 67.2597 32.3634C66.2038 32.2923 65.1421 32.3872 64.1278 32.6837C63.5287 32.8617 62.9533 33.1108 62.3957 33.3837C60.8238 34.1607 59.3942 35.1751 58.1842 36.4385C57.1995 37.4706 56.4047 38.6273 55.592 39.7899C55.2836 40.2289 54.9692 40.6619 54.6311 41.0771C54.5836 41.1364 54.5362 41.1898 54.4887 41.2491C54.3997 41.261 54.3108 41.2729 54.2218 41.2847C53.8718 41.3263 53.5219 41.344 53.1719 41.3678C52.1516 41.4271 51.1254 41.4745 50.117 41.6703C49.3281 41.8186 48.5511 42.0559 47.8393 42.4355C46.5284 43.1354 45.4903 44.2625 44.7607 45.5437C44.4523 46.0835 44.1972 46.6529 43.9599 47.2224C43.8591 47.4774 43.7583 47.7325 43.6455 47.9816C43.61 48.0706 43.5625 48.1596 43.521 48.2486C43.5151 48.2426 43.5091 48.2367 43.5091 48.2367C43.4439 48.1952 43.3846 48.1537 43.3193 48.1181C43.1769 47.9994 43.0227 47.8927 42.8744 47.78C42.4118 47.43 41.9491 47.0682 41.4449 46.7656C40.7034 46.3089 39.9026 45.9589 39.0485 45.775C38.2833 45.603 37.4944 45.5674 36.7173 45.6505C36.0648 45.7157 35.4242 45.8759 34.7895 46.036C33.9175 46.2614 33.0515 46.5343 32.2033 46.8368C30.056 47.6079 27.9977 48.5985 26.0224 49.7256C23.6142 51.0899 21.3304 52.6618 19.1713 54.382C18.1273 55.2183 17.113 56.0903 16.1343 57.0038C15.8555 57.2648 15.5767 57.5258 15.3038 57.7986C15.0784 58.0181 14.8589 58.2376 14.6632 58.4808C13.9455 59.3765 13.554 60.4442 13.2811 61.5415C13.115 61.3043 12.9489 61.0729 12.7828 60.8357C12.5218 60.462 12.2609 60.0942 11.988 59.7264C10.7779 58.0774 9.30093 56.3216 7.23669 55.7818C6.96977 55.7166 6.70284 55.6632 6.42998 55.6395C6.13339 55.6157 5.83088 55.6098 5.53429 55.6454C5.14873 55.681 4.7691 55.77 4.40727 55.9005C3.71919 56.1437 3.10229 56.553 2.58623 57.0631C1.66681 57.9766 1.1033 59.1807 0.717741 60.3967C0.587244 60.8001 0.474541 61.2094 0.379633 61.6246C0.231341 62.2415 0.112706 62.8643 0.0889793 63.4931C0.0355943 64.7625 0.326249 66.0259 0.955009 67.1233C1.45327 67.9952 2.14135 68.713 2.87688 69.3892C3.10822 69.5968 3.33956 69.8044 3.55903 70.0239C3.6658 70.1307 3.80816 70.2671 3.86748 70.4094C3.89121 70.4688 3.90307 70.5281 3.909 70.5874C3.9268 70.7416 3.87934 70.8958 3.83189 71.0382C3.7785 71.2102 3.70732 71.3822 3.64208 71.5483C3.43447 72.0763 3.23279 72.6101 3.10229 73.1618C2.954 73.7609 2.88875 74.3837 2.91841 75.0006C2.96586 76.0327 3.2921 77.0352 3.8141 77.9249C4.42506 78.9748 5.28516 79.8646 6.19271 80.6535C7.42058 81.7153 8.80267 82.5754 10.2322 83.3406C11.4601 83.9931 12.7176 84.5744 13.9573 85.2091C14.5802 85.5294 15.1971 85.8616 15.7902 86.2412C16.6147 86.7632 17.3977 87.3682 18.0087 88.1334C18.24 88.4241 18.4476 88.7384 18.6256 89.0706C18.7027 89.2189 18.8035 89.3791 18.8391 89.5452C18.8747 89.735 18.851 89.9248 18.8095 90.1087C18.7442 90.4349 18.6197 90.7434 18.4832 91.0399C18.2519 91.5323 17.9731 91.9949 17.6646 92.4458C17.3087 92.9796 16.9232 93.4897 16.5258 93.9939C15.7012 95.032 14.8234 96.0226 13.9633 97.0369C13.3108 97.8021 12.6701 98.5792 12.0829 99.3977C11.1635 100.679 10.3568 102.109 10.1788 103.692C10.1314 104.113 10.1314 104.535 10.1788 104.95C10.2144 105.276 10.2737 105.602 10.3627 105.917C10.8966 107.856 12.3202 109.357 13.8446 110.597C14.4971 111.131 15.1733 111.623 15.8377 112.139C16.0453 112.305 16.2529 112.465 16.4546 112.643C16.5198 112.703 16.591 112.762 16.6563 112.827C16.674 112.845 16.6918 112.863 16.7096 112.881C16.7156 112.892 16.7215 112.898 16.7274 112.904H16.7334C16.7274 112.898 16.7452 112.922 16.7512 112.928C16.7571 112.934 16.7571 112.94 16.763 112.952C16.7749 112.969 16.7927 112.987 16.8045 113.005C16.8401 113.058 16.8698 113.106 16.9054 113.159C17.0181 113.343 17.113 113.539 17.202 113.741C17.4689 114.328 17.6706 114.939 17.8545 115.55C18.1095 116.404 18.3171 117.27 18.5069 118.136C18.7264 119.138 18.9281 120.147 19.1179 121.155C19.5094 123.231 19.8831 125.307 20.3339 127.366C20.7076 129.062 21.1347 130.753 21.7397 132.384C22.4575 134.336 23.4599 136.287 25.103 137.628C26.4792 138.749 28.2468 139.342 30.0145 139.431C31.1474 139.49 32.2745 139.342 33.3778 139.105C34.048 138.962 34.7124 138.79 35.3827 138.624C35.8335 138.511 36.2843 138.405 36.747 138.328C36.9842 138.292 37.2274 138.262 37.4706 138.256C37.7791 138.245 38.0875 138.28 38.3545 138.44C38.568 138.559 38.74 138.725 38.912 138.897C39.0544 139.033 39.1968 139.17 39.3451 139.3C39.8137 139.733 40.306 140.143 40.7983 140.546C42.566 141.999 44.3751 143.393 46.0953 144.894C46.9199 145.618 47.7384 146.359 48.4621 147.184C48.6401 147.391 48.8239 147.605 48.9841 147.83C49.0315 147.907 49.0849 147.978 49.1265 148.056C48.9248 148.358 48.7468 148.672 48.6163 149.022C48.5036 149.301 48.4265 149.604 48.3791 149.9C48.2486 150.743 48.3791 151.603 48.6875 152.392C48.8833 152.878 49.1442 153.335 49.429 153.768C49.9747 154.586 50.5975 155.346 51.3686 155.963C52.8575 157.143 54.7082 157.712 56.553 158.056C57.2054 158.175 57.8639 158.276 58.5223 158.383C59.0324 158.46 59.5425 158.549 60.0527 158.667C60.367 158.739 60.6814 158.822 60.9839 158.946C61.1263 159.006 61.2924 159.077 61.4051 159.195C61.4229 159.213 61.4348 159.237 61.4407 159.249C61.4526 159.308 61.4526 159.373 61.4585 159.433C61.4703 159.628 61.4644 159.83 61.4526 160.032C61.4288 160.702 61.3576 161.366 61.3161 162.037C61.2687 162.748 61.2509 163.472 61.2983 164.184C61.3873 165.441 61.6898 166.687 62.3482 167.773C63.1905 169.167 64.5726 170.228 66.1505 170.649C66.9038 170.845 67.6868 170.893 68.4638 170.81C69.3536 170.721 70.2078 170.454 71.0501 170.157C71.3229 170.062 71.5958 169.961 71.8746 169.878C71.8983 169.884 71.922 169.884 71.9339 169.908C71.9458 169.932 71.9813 169.932 72.0051 169.95C72.0229 169.961 72.0466 169.967 72.0703 169.985C72.1593 170.033 72.2483 170.086 72.3372 170.139C72.7228 170.371 73.0846 170.626 73.4346 170.905C74.6743 171.877 75.6649 173.123 76.5428 174.416C77.3614 175.638 78.091 176.913 78.8147 178.189C79.5858 179.541 80.3569 180.899 81.1755 182.222C81.5492 182.821 81.9288 183.415 82.3262 183.996C82.5813 184.381 82.8423 184.761 83.1508 185.111C83.5007 185.497 83.8922 185.841 84.3193 186.149C85.215 186.796 86.2293 187.258 87.2674 187.638C88.7028 188.16 90.1858 188.528 91.6687 188.907C92.3153 189.067 92.9618 189.234 93.6024 189.429C93.7389 189.471 93.8812 189.512 94.0236 189.56C93.9761 189.613 93.9346 189.672 93.8931 189.726C93.2228 190.598 92.5822 191.494 92.1729 192.52C91.8882 193.237 91.7221 193.997 91.7102 194.768C91.7043 195.159 91.7399 195.557 91.8111 195.942C92.0602 197.229 92.7423 198.368 93.6677 199.282C93.9524 199.561 94.2549 199.822 94.5812 200.047C95.3226 200.563 96.1531 200.937 96.9954 201.263C98.0216 201.666 99.0774 201.999 100.139 202.301C101.723 202.752 103.319 203.132 104.926 203.47C106.64 203.826 108.366 204.128 110.104 204.342C111.059 204.46 112.02 204.549 112.981 204.573C113.788 204.591 114.601 204.567 115.384 204.401C115.811 204.312 116.226 204.181 116.617 204.015C117.608 203.594 118.498 202.96 119.227 202.177C119.862 201.494 120.378 200.711 120.811 199.893C120.995 199.543 121.161 199.181 121.321 198.825C121.387 198.861 121.452 198.896 121.517 198.932C122.181 199.323 122.834 199.75 123.504 200.136C124.228 200.551 124.981 200.925 125.764 201.21C126.826 201.595 127.947 201.803 129.074 201.749C129.501 201.726 129.928 201.666 130.349 201.571C130.949 201.435 131.53 201.222 132.076 200.949C132.497 200.735 132.894 200.48 133.268 200.189C134.27 199.4 135.03 198.351 135.54 197.188C135.913 196.334 136.151 195.432 136.323 194.519C136.501 193.587 136.607 192.644 136.779 191.713C136.839 191.393 136.904 191.066 136.999 190.758C137.058 190.58 137.123 190.396 137.224 190.242C137.295 190.129 137.408 190.028 137.503 189.933C137.657 189.785 137.835 189.631 138.043 189.554C138.209 189.495 138.393 189.495 138.577 189.5C138.903 189.506 139.229 189.56 139.549 189.607C140.214 189.708 140.872 189.821 141.543 189.88C142.397 189.951 143.269 189.922 144.111 189.738C145.238 189.495 146.288 188.978 147.184 188.255C147.961 187.62 148.595 186.831 149.058 185.941C150.452 183.254 150.102 180.093 149.651 177.21C149.521 176.35 149.366 175.496 149.26 174.636C149.23 174.381 149.2 174.125 149.189 173.87C149.177 173.621 149.177 173.384 149.224 173.147C149.343 172.589 149.533 172.043 149.752 171.521C149.93 171.1 150.138 170.685 150.369 170.288C150.594 171.035 150.98 171.741 151.49 172.358C151.917 172.874 152.409 173.325 152.979 173.681C153.857 174.226 154.871 174.523 155.897 174.612C157.119 174.719 158.347 174.535 159.533 174.244C161.093 173.864 162.6 173.295 164.101 172.743C164.89 172.453 165.679 172.162 166.479 171.925C166.776 171.836 167.079 171.753 167.387 171.693C167.559 171.658 167.743 171.628 167.921 171.622C167.945 171.628 167.962 171.634 167.98 171.64C168.04 171.658 168.099 171.682 168.158 171.705C168.348 171.782 168.538 171.871 168.722 171.972C169.244 172.257 169.736 172.589 170.222 172.927C171.403 173.752 172.53 174.642 173.746 175.413C174.309 175.769 174.891 176.089 175.49 176.368C176.866 177.014 178.295 177.548 179.761 177.963C181.054 178.331 182.365 178.604 183.681 178.847C184.702 179.037 185.728 179.203 186.742 179.393C186.997 179.44 187.246 179.488 187.501 179.541C187.745 179.589 187.982 179.63 188.219 179.701C188.628 179.826 189.02 179.998 189.388 180.211C190.366 180.775 191.191 181.558 191.98 182.353C192.852 183.231 193.688 184.15 194.566 185.022C195.592 186.036 196.672 186.997 197.876 187.804C199.448 188.854 201.204 189.607 203.066 189.969C203.487 190.052 203.915 190.111 204.336 190.177C204.917 190.272 205.492 190.372 206.074 190.467C207.954 190.794 209.828 191.12 211.727 191.321C212.907 191.446 214.099 191.517 215.292 191.505C216.282 191.499 217.285 191.422 218.251 191.197C219.307 190.948 220.316 190.521 221.205 189.904C221.787 189.506 222.303 189.032 222.789 188.534C223.187 188.136 223.554 187.709 223.976 187.341C224.041 187.282 224.112 187.235 224.177 187.181C224.201 187.181 224.219 187.181 224.242 187.181C224.456 187.175 224.675 187.181 224.895 187.187C225.494 187.205 226.087 187.235 226.686 187.276C228.383 187.395 230.073 187.567 231.764 187.762C234.487 188.083 237.203 188.462 239.908 188.925C240.851 189.091 241.794 189.263 242.732 189.471C243.088 189.554 243.443 189.637 243.793 189.732C243.888 189.756 243.977 189.785 244.066 189.809C244.108 189.874 244.149 189.933 244.179 190.005C244.309 190.289 244.381 190.598 244.434 190.9C244.594 191.826 244.565 192.787 244.499 193.718C244.404 195.118 244.173 196.506 243.983 197.894C243.9 198.505 243.823 199.11 243.787 199.727C243.764 200.172 243.764 200.622 243.817 201.061C243.865 201.482 243.96 201.898 244.114 202.295C244.44 203.149 245.033 203.897 245.81 204.377C245.899 204.436 245.994 204.49 246.089 204.537C246.214 204.603 246.338 204.662 246.463 204.709C246.599 204.763 246.736 204.81 246.872 204.846C247.056 204.893 247.24 204.935 247.424 204.964C247.602 204.988 247.78 205 247.952 205C248.124 205.006 248.29 204.994 248.456 204.976C248.616 204.958 248.77 204.929 248.93 204.893C249.067 204.864 249.203 204.822 249.34 204.781C249.458 204.739 249.577 204.692 249.695 204.638C250.882 204.122 251.718 203.12 252.371 202.04C252.673 201.554 252.94 201.044 253.189 200.527C253.877 199.116 254.465 197.651 255.016 196.18C255.194 195.711 255.36 195.248 255.532 194.78C255.592 194.614 255.651 194.442 255.71 194.275C255.728 194.228 255.746 194.181 255.764 194.139C255.77 194.121 255.775 194.092 255.781 194.074H255.787C256.203 193.071 256.582 192.063 256.98 191.055C257.573 189.572 258.184 188.095 258.901 186.659C259.281 185.894 259.69 185.141 260.147 184.423C260.515 183.836 260.918 183.272 261.375 182.756C261.648 182.442 261.944 182.151 262.283 181.908C262.484 181.76 262.71 181.623 262.953 181.558C262.977 181.552 263.006 181.546 263.03 181.54C263.036 181.54 263.036 181.54 263.042 181.54C263.054 181.546 263.066 181.552 263.077 181.552C263.125 181.576 263.166 181.599 263.208 181.623C263.332 181.694 263.451 181.777 263.57 181.86C263.967 182.145 264.347 182.46 264.738 182.762C265.296 183.195 265.877 183.61 266.5 183.948C267.295 184.381 268.167 184.69 269.062 184.814C270.694 185.046 272.349 184.696 273.725 183.782C274.176 183.48 274.597 183.13 274.994 182.762C274.994 182.756 275 182.75 275.006 182.75C275.125 182.893 275.255 183.035 275.398 183.165C275.629 183.391 275.89 183.587 276.169 183.759C276.394 183.895 276.637 184.02 276.886 184.114C278.162 184.631 279.556 184.565 280.884 184.316C281.46 184.203 282.023 184.061 282.569 183.859C284.188 183.272 285.594 182.258 286.798 181.042C287.676 180.158 288.441 179.179 289.207 178.201C289.509 177.809 289.812 177.412 290.138 177.032C290.268 176.878 290.399 176.724 290.541 176.575C291.734 177.133 293.068 177.168 294.355 176.901C294.806 176.813 295.251 176.694 295.678 176.516C296.076 176.35 296.461 176.142 296.817 175.899C297.09 175.703 297.345 175.49 297.582 175.258C298.359 174.487 298.899 173.52 299.261 172.488C299.492 171.812 299.652 171.112 299.777 170.406C299.919 169.623 300.02 168.84 300.168 168.063C300.222 167.808 300.281 167.547 300.358 167.298C300.382 167.203 300.412 167.114 300.453 167.025C300.459 167.013 300.465 167.001 300.471 166.99C300.607 166.895 300.738 166.794 300.88 166.705C301.147 166.527 301.414 166.367 301.693 166.201C302.594 165.667 303.532 165.18 304.445 164.67C305.756 163.929 307.031 163.128 308.164 162.137C309.505 160.969 310.608 159.545 311.379 157.938C311.735 157.184 312.026 156.396 312.222 155.583C312.583 154.112 312.678 152.599 312.809 151.099C312.886 150.268 312.963 149.432 313.159 148.625C313.218 148.394 313.289 148.156 313.384 147.937C313.45 147.801 313.521 147.664 313.627 147.551C313.788 147.385 314.007 147.284 314.227 147.207C314.458 147.118 314.707 147.065 314.95 147.018C315.846 146.846 316.759 146.78 317.655 146.608C318.563 146.436 319.458 146.181 320.295 145.772C321.351 145.256 322.276 144.514 323.005 143.595C324.032 142.302 324.643 140.718 325.016 139.128C325.135 138.624 325.23 138.114 325.343 137.604C325.432 137.206 325.521 136.785 325.722 136.418C325.823 136.228 325.965 136.056 326.114 135.901C326.47 135.552 326.891 135.261 327.306 134.988C327.899 134.602 328.516 134.258 329.133 133.914C330.942 132.912 332.775 131.921 334.317 130.527C334.626 130.249 334.916 129.952 335.195 129.644C335.521 129.282 335.824 128.908 336.049 128.475C336.198 128.196 336.316 127.906 336.411 127.609C336.542 127.603 336.666 127.591 336.803 127.591C338.606 127.567 340.415 127.662 342.224 127.573C343.363 127.52 344.508 127.401 345.605 127.111C346.519 126.867 347.409 126.5 348.18 125.96C349.508 125.035 350.41 123.653 350.665 122.057C350.724 121.671 350.742 121.286 350.718 120.9C350.653 120.005 350.333 119.156 349.846 118.403C349.657 118.106 349.437 117.828 349.218 117.555C349.141 117.466 349.058 117.371 348.98 117.276C348.98 117.276 348.975 117.27 348.969 117.264C348.939 117.157 348.915 117.051 348.892 116.944C348.832 116.677 348.785 116.41 348.737 116.143C348.625 115.437 348.536 114.725 348.447 114.019C348.322 113.1 348.203 112.187 348.002 111.285C347.836 110.526 347.604 109.772 347.201 109.102C346.815 108.461 346.282 107.874 345.7 107.411C344.686 106.599 343.482 106.16 342.206 106.006C341.584 105.929 340.961 105.923 340.338 105.905C340.142 105.899 339.941 105.887 339.751 105.863C339.567 105.84 339.383 105.804 339.217 105.715C339.027 105.608 338.861 105.442 338.719 105.276C338.464 104.985 338.25 104.659 338.054 104.327C337.657 103.639 337.307 102.874 337.236 102.073C337.176 101.308 337.39 100.554 337.621 99.8367C337.864 99.0893 338.143 98.3597 338.38 97.6123C338.535 97.1081 338.671 96.598 338.778 96.0819C339.075 94.6761 339.128 93.2287 338.885 91.8111C338.814 91.4018 338.73 90.9866 338.594 90.5951C338.38 89.996 338.042 89.4443 337.615 88.9698C336.298 87.5106 334.299 86.9411 332.419 86.6267C330.924 86.3717 329.406 86.2531 327.893 86.1819C326.043 86.087 324.186 86.0632 322.335 86.0514C320.609 86.0336 318.889 86.0395 317.163 85.9802C316.605 85.9624 316.042 85.9387 315.478 85.8853C315.371 85.8734 315.271 85.8616 315.164 85.8438C315.11 85.7785 315.063 85.7133 315.016 85.648C314.796 85.3396 314.588 85.0192 314.387 84.6989C313.841 83.8329 313.319 82.955 312.767 82.089C312.512 81.6856 312.251 81.2823 311.978 80.8908C310.673 78.9867 309.06 77.0648 306.842 76.2225C306.563 76.1158 306.278 76.0268 305.993 75.9615C305.578 75.8666 305.163 75.8073 304.742 75.8014C303.318 75.7598 301.841 76.2403 300.732 77.1301C300.127 77.6224 299.629 78.2393 299.267 78.9214C298.988 79.4434 298.78 80.001 298.608 80.5705C298.49 80.962 298.395 81.3594 298.276 81.7509C298.134 81.8221 297.991 81.8932 297.843 81.9526C297.286 82.178 296.704 82.344 296.111 82.4745C294.925 82.7296 293.691 82.8542 292.475 82.7771C291.834 82.7355 291.17 82.6466 290.571 82.4093C290.47 82.3678 290.375 82.3263 290.28 82.2729C290.257 82.261 290.227 82.2373 290.197 82.2195C290.168 82.1246 290.15 82.0356 290.126 81.9407C290.096 81.7924 290.073 81.65 290.055 81.5017C289.996 81.1281 289.954 80.7543 289.895 80.3866C289.699 79.1469 289.349 77.9427 288.649 76.8869C288.382 76.4894 288.074 76.1276 287.73 75.8073C289.302 75.137 290.82 74.3303 292.095 73.1914C292.772 72.5923 293.365 71.9042 293.839 71.1331C294.177 70.5755 294.456 69.9705 294.652 69.3477C294.8 68.8909 294.901 68.4164 294.96 67.9418C295.008 67.5266 295.032 67.1055 295.02 66.6843C294.96 64.5252 294.112 62.5203 293.015 60.6933C292.594 59.9934 292.137 59.3112 291.627 58.6765C290.921 57.7927 290.108 56.986 289.165 56.3631C288.329 55.8115 287.392 55.4081 286.407 55.2183C285.932 55.1234 285.446 55.0819 284.96 55.0878C284.509 55.0938 284.058 55.1412 283.613 55.2302C281.626 55.6217 279.959 56.7487 278.393 57.9588C277.776 58.4333 277.177 58.9316 276.548 59.3824C276.347 59.5247 276.145 59.6612 275.931 59.7857C275.795 59.8688 275.653 59.9459 275.498 59.9934C275.22 60.0823 274.917 60.1179 274.626 60.1357C274.211 60.1654 273.796 60.1654 273.381 60.1416C272.699 60.1001 272.017 60.0112 271.346 59.8925C270.628 59.762 269.917 59.5959 269.223 59.3883C268.997 59.3231 268.778 59.2519 268.558 59.1748C268.44 59.1333 268.321 59.0977 268.214 59.0443C267.882 58.896 267.574 58.6943 267.265 58.5045C266.814 58.2198 266.37 57.9173 265.931 57.6088C264.928 56.9207 263.943 56.203 262.947 55.4971C261.037 54.1328 259.121 52.7804 257.128 51.5347C255.509 50.5204 253.836 49.5713 252.068 48.818C249.737 47.8274 247.056 47.1393 244.565 47.9698C244.244 48.0765 243.936 48.207 243.633 48.3613C243.117 48.6282 242.631 48.9663 242.192 49.3459C241.682 49.7849 241.225 50.3069 240.875 50.8882C240.608 51.339 240.395 51.8254 240.252 52.3296C240.128 52.7863 240.062 53.2549 240.05 53.7235C240.045 54.1269 240.074 54.5243 240.139 54.9158C240.537 57.2055 242.103 59.0917 243.633 60.7467C244.286 61.4466 244.962 62.1228 245.614 62.8228C245.822 63.0541 246.036 63.2795 246.237 63.5227C246.285 63.5761 246.332 63.6414 246.386 63.7007C246.362 63.7185 246.338 63.7363 246.314 63.7481C246.065 63.9024 245.792 64.0269 245.52 64.1396C244.754 64.454 243.954 64.6913 243.165 64.9523C241.919 65.3616 240.667 65.8064 239.57 66.5301C238.775 67.0462 238.063 67.6987 237.476 68.4401C236.883 69.1934 236.414 70.0357 236.029 70.9077C235.815 71.4 235.625 71.8983 235.43 72.4025C235.264 72.8296 235.098 73.2567 234.884 73.66C234.783 73.8498 234.67 74.0337 234.528 74.1939C234.469 74.2532 234.409 74.3006 234.35 74.354C233.935 74.1524 233.609 73.838 233.354 73.4524C232.998 72.9245 232.76 72.3254 232.559 71.7263C232.304 70.9967 232.108 70.2434 231.912 69.496C231.349 67.2953 230.797 65.0412 229.569 63.0956C229.296 62.6626 228.988 62.2415 228.65 61.8559C228.235 61.3873 227.778 60.9543 227.315 60.5331C226.87 60.1357 226.419 59.7442 225.963 59.3705C224.889 58.4748 223.786 57.6266 222.647 56.814C221.638 56.0903 220.6 55.3903 219.533 54.7557C218.643 54.2218 217.724 53.7176 216.763 53.332C216.573 53.2609 216.377 53.1956 216.181 53.1244C217.018 52.7389 217.854 52.3592 218.69 51.9618C219.918 51.3805 221.14 50.7695 222.309 50.0577C223.163 49.5417 223.993 48.9663 224.741 48.3019C226.129 47.0563 227.208 45.4725 227.452 43.5922C227.517 43.1236 227.523 42.6431 227.481 42.1686C227.416 41.5339 227.262 40.917 227.03 40.3238C226.692 39.4637 226.194 38.6748 225.601 37.963C225.263 37.5596 224.901 37.1681 224.468 36.8656C223.815 36.4148 223.05 36.136 222.309 35.8691C221.318 35.5191 220.316 35.2107 219.313 34.9081C216.377 34.0302 213.417 33.2295 210.451 32.4643C209.223 32.144 207.99 31.8355 206.756 31.533C205.913 31.3313 205.071 31.1237 204.217 30.9517C203.737 30.8568 203.244 30.7619 202.752 30.7856C202.645 30.7915 202.532 30.7797 202.432 30.8093C201.904 30.9754 201.388 31.1652 200.872 31.3669C200.8 31.3966 200.747 31.4559 200.682 31.4974C200.652 31.5152 200.622 31.5389 200.593 31.5567C200.468 31.6457 200.344 31.7287 200.219 31.8177C200.189 31.8355 200.154 31.8533 200.124 31.883C199.982 32.0075 199.833 32.1202 199.691 32.2448C199.472 31.8236 199.246 31.3966 199.009 30.9873C198.683 30.4119 198.333 29.8425 197.935 29.3145C197.348 28.5375 196.642 27.8257 195.77 27.3749C195.385 27.1791 194.981 27.0308 194.566 26.9359C193.32 26.6512 192.075 26.8588 190.912 27.3393C190.687 27.4282 190.473 27.541 190.254 27.6418C189.999 27.2206 189.75 26.7876 189.489 26.3665C189.097 25.7377 188.676 25.1267 188.178 24.5692C187.531 23.8455 186.76 23.2227 185.876 22.8015C185.034 22.3982 184.109 22.1846 183.177 22.1728C182.501 22.1668 181.831 22.2617 181.166 22.41C180.68 22.5168 180.205 22.6651 179.725 22.7956C179.606 22.8312 179.488 22.8549 179.363 22.8846C179.156 22.7066 178.96 22.5168 178.764 22.327C178.462 22.0304 178.159 21.7338 177.839 21.455C177.418 21.0813 176.961 20.7373 176.48 20.4466C175.715 19.9958 174.873 19.6814 173.989 19.5628C173.639 19.5153 173.283 19.4975 172.927 19.5272C172.459 19.5569 171.996 19.6755 171.551 19.8475C171.545 19.8238 171.533 19.8001 171.521 19.7763C171.255 18.9934 171.077 18.1807 170.899 17.374C170.412 15.1555 169.95 12.8837 168.882 10.8491C168.235 9.61532 167.363 8.49422 166.254 7.63412C165.88 7.3494 165.489 7.0884 165.074 6.86893C164.741 6.69098 164.397 6.53676 164.053 6.38253C163.537 6.14526 163.009 5.91393 162.481 5.70038C160.702 4.97078 158.863 4.34795 156.977 3.95646C155.53 3.65987 154.035 3.49379 152.564 3.66581C151.478 3.79037 150.416 4.09882 149.473 4.65047C147.801 5.6292 146.507 7.41465 146.377 9.37805C146.306 10.4754 146.614 11.5253 147.089 12.4981C146.929 12.5041 146.762 12.5159 146.596 12.5159C145.979 12.51 145.363 12.4922 144.746 12.5041C144.058 12.51 143.364 12.5574 142.693 12.7295C141.543 13.032 140.463 13.6607 139.627 14.5149C139.17 14.9835 138.778 15.5174 138.458 16.0927C138.233 16.502 138.043 16.9232 137.871 17.3503C137.835 17.4274 137.806 17.5104 137.77 17.5875C137.604 17.5697 137.438 17.5519 137.272 17.5282C136.803 17.463 136.329 17.374 135.872 17.2435C135.795 17.2198 135.712 17.196 135.635 17.1723C135.718 16.6029 135.842 16.0394 135.919 15.4758C136.026 14.7462 136.062 14.0107 135.985 13.2752C135.854 12.077 135.403 10.9322 134.644 9.98901C134.33 9.59752 133.968 9.24162 133.57 8.93317C133.303 8.71963 133.019 8.53574 132.74 8.35186C132.449 8.15611 132.153 7.9663 131.862 7.77648C131.643 7.63412 131.423 7.49176 131.204 7.34347C131.073 7.25449 130.943 7.16552 130.824 7.07061C130.699 6.91045 130.593 6.73843 130.486 6.56641C130.308 6.29949 130.136 6.02663 129.964 5.75377C129.709 5.36228 129.448 4.96485 129.181 4.57336C129.009 4.3183 128.843 4.0573 128.659 3.8141C128.392 3.46413 128.083 3.14382 127.751 2.85316C126.684 1.91595 125.355 1.29312 124.008 0.854175C122.235 0.278799 120.349 8.06898e-06 118.48 0.0237349ZM118.51 7.24856C119.583 7.23077 120.681 7.38499 121.707 7.7053C121.992 7.79428 122.27 7.90105 122.537 8.02562C122.668 8.09087 122.804 8.16798 122.929 8.25695C122.941 8.27475 122.953 8.29254 122.97 8.31627C123.036 8.41118 123.101 8.51202 123.166 8.60692C123.386 8.93317 123.599 9.25941 123.813 9.58566C124.287 10.3153 124.726 11.0864 125.29 11.7507C125.646 12.166 126.043 12.5337 126.482 12.8659C127.045 13.293 127.645 13.6667 128.238 14.0522C128.41 14.1649 128.582 14.2776 128.748 14.3903C128.748 14.3903 128.748 14.3963 128.748 14.4022C128.718 14.6276 128.677 14.8471 128.635 15.0725C128.528 15.6716 128.416 16.2707 128.362 16.8757C128.303 17.6113 128.321 18.3587 128.475 19.0883C128.718 20.2212 129.276 21.2652 130.088 22.0956C131.637 23.6735 133.861 24.326 135.99 24.6522C136.91 24.7946 137.847 24.9132 138.778 24.8539C139.478 24.8124 140.172 24.67 140.825 24.4149C141.928 23.976 142.859 23.2049 143.524 22.2321C143.862 21.7338 144.123 21.2 144.354 20.6542C144.443 20.4526 144.52 20.2449 144.609 20.0492C144.651 19.9424 144.698 19.8475 144.746 19.7526C144.805 19.7467 144.864 19.7407 144.924 19.7407C145.149 19.7407 145.38 19.7407 145.606 19.7467C146.175 19.7526 146.739 19.7645 147.302 19.7526C149.361 19.7111 151.514 19.3908 153.139 18.0206C153.43 17.7774 153.697 17.5045 153.934 17.2079C154.29 16.769 154.575 16.2766 154.782 15.7487C155.138 14.8471 155.257 13.8802 155.12 12.9193C155.031 12.2905 154.83 11.6796 154.569 11.1042C154.533 11.033 154.497 10.9677 154.468 10.9025C154.907 10.95 155.34 11.0211 155.767 11.116C156.514 11.2881 157.244 11.5075 157.962 11.7507C158.905 12.077 159.836 12.4507 160.743 12.854C160.963 12.9489 161.182 13.0498 161.396 13.1506C161.58 13.2337 161.752 13.3226 161.9 13.465C162.06 13.6192 162.191 13.8031 162.304 13.9989C162.505 14.331 162.654 14.681 162.784 15.0428C163.187 16.1461 163.425 17.3028 163.674 18.4476C164.219 20.933 164.789 23.5964 166.503 25.5776C166.723 25.8326 166.96 26.0699 167.209 26.2953C167.547 26.5919 167.915 26.8588 168.306 27.0842C168.935 27.452 169.653 27.7545 170.377 27.8672C171.124 27.9858 171.895 27.9028 172.601 27.6418C172.88 27.5469 173.141 27.4164 173.396 27.2681C173.509 27.3808 173.633 27.4935 173.752 27.6121C174.422 28.2706 175.122 28.9052 175.946 29.3739C176.421 29.6467 176.931 29.8603 177.459 29.9967C178.521 30.2814 179.63 30.2577 180.698 30.0441C181.19 29.9492 181.671 29.8128 182.145 29.6764C182.353 29.6171 182.566 29.5518 182.774 29.5043C182.786 29.5043 182.792 29.5043 182.798 29.5043C182.851 29.5637 182.904 29.6289 182.952 29.7001C183.13 29.9492 183.296 30.2162 183.456 30.4831C183.954 31.3135 184.423 32.1677 185.022 32.9329C185.882 34.0184 186.991 34.8785 188.362 35.1988C188.706 35.2818 189.056 35.3234 189.411 35.3352C189.856 35.353 190.295 35.3115 190.728 35.2285C191.393 35.098 192.027 34.8488 192.638 34.5641C192.923 35.0564 193.184 35.5606 193.439 36.0648C193.931 37.0436 194.4 38.0342 194.91 39.001C195.29 39.7247 195.687 40.4484 196.168 41.1068C196.743 41.8957 197.461 42.5956 198.368 42.9812C198.487 43.0287 198.6 43.0761 198.718 43.1117C198.855 43.1592 198.991 43.1947 199.134 43.2244C199.276 43.26 199.424 43.2837 199.572 43.2956C199.727 43.3134 199.887 43.3252 200.047 43.3193C200.219 43.3193 200.391 43.3015 200.563 43.2837C200.717 43.26 200.866 43.2244 201.014 43.1947C201.251 43.1354 201.488 43.0465 201.714 42.9515C202.325 42.6905 202.876 42.2991 203.339 41.8186C204.193 40.9229 204.632 39.784 204.893 38.5977C205.884 38.8349 206.868 39.0781 207.853 39.3332C210.73 40.0747 213.601 40.8399 216.454 41.6822C217.374 41.955 218.293 42.2338 219.206 42.5363C219.444 42.6134 219.681 42.6965 219.918 42.7855C219.877 42.821 219.835 42.8566 219.794 42.8922C219.266 43.349 218.667 43.7167 218.062 44.0608C217.19 44.559 216.288 44.9921 215.386 45.4251C213.726 46.2081 212.041 46.9436 210.41 47.7918C209.235 48.4028 208.079 49.0671 207.064 49.9213C206.56 50.3543 206.086 50.8289 205.694 51.3627C205.071 52.2109 204.65 53.2015 204.543 54.2515C204.496 54.6726 204.508 55.0997 204.561 55.5149C204.626 56.0072 204.757 56.4877 204.947 56.9445C205.095 57.2944 205.279 57.6266 205.504 57.9351C205.664 58.1427 205.842 58.3384 206.038 58.5164C207.224 59.6256 208.867 59.9637 210.439 60.0942C211.329 60.1654 212.225 60.1654 213.115 60.1476C213.399 60.1416 213.684 60.1298 213.969 60.1239C213.975 60.1239 213.975 60.1239 213.987 60.1239C214.04 60.1416 214.093 60.1654 214.147 60.1891C214.348 60.2721 214.538 60.3671 214.728 60.4679C215.327 60.7763 215.908 61.1263 216.472 61.4881C217.385 62.0695 218.275 62.6982 219.141 63.3448C219.936 63.932 220.713 64.543 221.466 65.1836C221.852 65.5039 222.226 65.8302 222.588 66.1683C222.843 66.4055 223.104 66.6487 223.299 66.9394C223.513 67.2597 223.667 67.6097 223.809 67.9656C223.999 68.4638 224.154 68.9799 224.302 69.496C224.67 70.8247 224.972 72.1712 225.381 73.488C225.725 74.5854 226.147 75.6649 226.704 76.6793C227.303 77.7588 228.068 78.7554 229.006 79.568C229.409 79.918 229.836 80.2324 230.293 80.5112C231.254 81.0925 232.316 81.5077 233.419 81.7509C233.793 81.8339 234.172 81.8873 234.552 81.8932C235.542 81.911 236.503 81.6382 237.375 81.1814C237.957 80.8671 238.496 80.4815 239.007 80.0603C239.499 79.6451 239.956 79.1943 240.359 78.696C241.011 77.8834 241.51 76.9699 241.919 76.0208C242.192 75.3861 242.429 74.7337 242.69 74.093C242.779 73.8676 242.88 73.6482 242.993 73.4346C243.099 73.2329 243.218 73.0313 243.378 72.8711C243.562 72.6872 243.793 72.5686 244.031 72.4678C244.262 72.361 244.505 72.272 244.742 72.189C245.567 71.8924 246.409 71.6492 247.234 71.3585C248.082 71.056 248.912 70.7238 249.701 70.2967C250.793 69.6976 251.789 68.9206 252.543 67.93C252.816 67.5682 253.053 67.1826 253.254 66.7792C253.504 66.2869 253.693 65.7649 253.824 65.2311C254.002 64.4837 254.091 63.7007 254.002 62.9355C253.86 61.7551 253.314 60.6696 252.626 59.7146C252.199 59.1214 251.718 58.5697 251.226 58.03C250.633 57.3834 250.022 56.7606 249.417 56.1259C249.209 55.9064 249.001 55.681 248.794 55.4556C249.577 55.7581 250.336 56.1318 251.072 56.5352C252.294 57.1995 253.468 57.941 254.625 58.7121C256.048 59.6493 257.436 60.6399 258.818 61.6305C259.922 62.4194 261.025 63.2143 262.146 63.9795C263 64.5608 263.872 65.1421 264.804 65.6048C265.355 65.8835 265.936 66.0971 266.53 66.2869C267.241 66.5242 267.971 66.7199 268.701 66.8919C270.522 67.3131 272.402 67.5741 274.271 67.5504C275.54 67.5326 276.827 67.3724 278.025 66.9513C279.734 66.3462 281.163 65.1955 282.569 64.0922C283.085 63.6888 283.601 63.2855 284.147 62.9296C284.301 62.8346 284.461 62.7397 284.621 62.6567C284.752 62.5914 284.882 62.5381 285.019 62.5025C285.054 62.5203 285.084 62.544 285.12 62.5737C285.215 62.6448 285.304 62.7219 285.393 62.805C285.648 63.0601 285.873 63.3388 286.081 63.6354C286.247 63.8608 286.401 64.0981 286.549 64.3354C286.923 64.9463 287.291 65.5929 287.486 66.2869C287.534 66.4589 287.575 66.6309 287.587 66.8089C287.593 66.9216 287.593 67.0402 287.558 67.147C287.486 67.3546 287.303 67.5266 287.142 67.669C286.81 67.9656 286.425 68.1969 286.039 68.4105C285.547 68.6774 285.043 68.9028 284.526 69.1163C283.589 69.5019 282.628 69.84 281.673 70.19C280.967 70.451 280.262 70.7238 279.585 71.0501C278.328 71.661 277.165 72.4974 276.507 73.7609C276.359 74.0515 276.234 74.354 276.145 74.6684C275.659 76.3827 276.246 78.2096 277.48 79.4672C278.055 80.0485 278.749 80.4874 279.508 80.7899C280.072 81.0153 280.659 81.1577 281.258 81.2585C281.673 81.3297 282.094 81.3712 282.516 81.4306C282.563 81.6916 282.599 81.9466 282.634 82.2076C282.7 82.7178 282.783 83.2219 282.895 83.7261C283.061 84.4557 283.31 85.1616 283.672 85.82C283.969 86.3598 284.343 86.864 284.77 87.3148C286.063 88.6673 287.819 89.4562 289.628 89.8595C291.176 90.2036 292.783 90.2807 294.367 90.1917C296.022 90.0909 297.683 89.8121 299.273 89.3257C300.305 89.0054 301.325 88.602 302.262 88.0504C302.737 87.7716 303.2 87.4572 303.597 87.0776C304.19 86.514 304.647 85.8319 304.985 85.0964C305.092 84.8532 305.187 84.604 305.27 84.349C305.679 84.8828 306.059 85.4345 306.42 85.998C307.162 87.1606 307.844 88.3647 308.615 89.5096C309.179 90.34 309.79 91.1586 310.561 91.8111C310.964 92.1551 311.409 92.4458 311.889 92.6593C312.655 93.0033 313.497 93.1516 314.327 93.2525C315.271 93.3592 316.226 93.4008 317.175 93.4304C320.668 93.5372 324.168 93.4482 327.656 93.6321C328.7 93.6855 329.738 93.7626 330.77 93.9109C331.025 93.9465 331.28 94.0058 331.535 94.0592C331.535 94.0651 331.535 94.071 331.529 94.0829C331.44 94.8896 331.15 95.6667 330.883 96.4259C330.503 97.5055 330.135 98.591 329.928 99.724C329.667 101.165 329.679 102.648 329.981 104.084C330.254 105.353 330.746 106.563 331.369 107.702C332.289 109.375 333.499 110.929 335.124 111.973C335.498 112.21 335.889 112.418 336.293 112.596C337.242 113.011 338.256 113.236 339.288 113.325C339.697 113.361 340.113 113.367 340.522 113.379C340.611 113.379 340.694 113.385 340.783 113.391C340.789 113.438 340.801 113.491 340.807 113.545C340.878 113.99 340.943 114.441 341.002 114.885C341.109 115.74 341.216 116.594 341.358 117.442C341.465 118.106 341.595 118.771 341.791 119.423C341.856 119.649 341.934 119.868 342.017 120.088C341.4 120.123 340.789 120.141 340.172 120.135C338.73 120.135 337.283 120.07 335.848 120.135C334.792 120.177 333.718 120.289 332.716 120.639C332.099 120.853 331.506 121.161 331.001 121.582C330.414 122.063 329.957 122.698 329.667 123.397C329.471 123.866 329.352 124.358 329.281 124.857C329.275 124.898 329.275 124.934 329.269 124.975C329.103 125.124 328.937 125.272 328.759 125.408C328.077 125.918 327.336 126.346 326.588 126.761C324.293 128.042 321.861 129.264 320.152 131.322C319.583 132.01 319.114 132.77 318.758 133.582C318.438 134.3 318.213 135.059 318.041 135.824C317.952 136.216 317.875 136.613 317.792 137.005C317.708 137.384 317.625 137.77 317.501 138.138C317.436 138.328 317.353 138.511 317.264 138.689C317.21 138.79 317.163 138.903 317.08 138.986C317.044 139.022 316.997 139.039 316.955 139.057C316.878 139.093 316.801 139.116 316.724 139.134C316.469 139.211 316.208 139.259 315.947 139.3C315.051 139.443 314.149 139.526 313.266 139.71C312.441 139.882 311.628 140.125 310.863 140.481C309.57 141.074 308.419 141.976 307.559 143.109C307.322 143.417 307.114 143.743 306.925 144.081C305.845 145.979 305.525 148.162 305.329 150.304C305.258 151.051 305.21 151.804 305.121 152.552C305.056 153.086 304.991 153.631 304.819 154.142C304.582 154.859 304.166 155.524 303.644 156.069C302.915 156.84 301.995 157.416 301.082 157.938C299.682 158.745 298.229 159.468 296.876 160.346C296.402 160.649 295.921 160.963 295.494 161.331C295.251 161.532 295.032 161.752 294.824 161.989C294.231 162.654 293.78 163.437 293.448 164.261C292.938 165.519 292.718 166.865 292.505 168.2C292.499 168.241 292.493 168.277 292.487 168.318C292.374 168.271 292.261 168.229 292.143 168.194C291.312 167.951 290.423 167.986 289.598 168.241C289.195 168.366 288.815 168.544 288.447 168.745C287.896 169.048 287.386 169.416 286.887 169.795C286.3 170.24 285.737 170.715 285.22 171.243C284.538 171.949 283.921 172.72 283.316 173.497C282.806 174.155 282.302 174.819 281.745 175.43C281.282 175.941 280.748 176.468 280.107 176.747C280.066 176.759 280.03 176.771 279.989 176.783C279.247 175.994 278.292 175.46 277.254 175.169C276.762 175.039 276.258 174.956 275.748 174.908C275.107 174.855 274.472 174.861 273.838 174.974C273.173 175.098 272.533 175.324 271.933 175.644C271.21 176.035 270.593 176.563 270 177.115C269.964 177.145 269.934 177.174 269.899 177.204C269.84 177.162 269.774 177.121 269.715 177.079C269.436 176.878 269.175 176.664 268.908 176.451C268.315 175.988 267.716 175.531 267.064 175.152C266.15 174.612 265.142 174.226 264.092 174.078C263.641 174.019 263.184 173.995 262.727 174.013C261.102 174.084 259.53 174.677 258.19 175.573C257.448 176.065 256.778 176.646 256.161 177.281C254.844 178.645 253.782 180.247 252.869 181.902C252.08 183.331 251.404 184.814 250.769 186.315C250.384 185.609 249.915 184.951 249.351 184.375C248.99 184.014 248.598 183.676 248.171 183.397C247.619 183.053 247.008 182.821 246.391 182.632C245.721 182.43 245.045 182.264 244.363 182.115C242.382 181.677 240.371 181.344 238.36 181.042C236.604 180.775 234.842 180.538 233.081 180.33C231.39 180.128 229.706 179.95 228.009 179.814C226.918 179.731 225.826 179.66 224.729 179.642C223.904 179.63 223.068 179.642 222.255 179.808C221.834 179.891 221.425 180.028 221.039 180.223C220.695 180.401 220.369 180.621 220.049 180.84C219.438 181.267 218.874 181.754 218.34 182.27C218.014 182.59 217.712 182.928 217.391 183.254C217.285 183.367 217.172 183.474 217.059 183.575C216.976 183.646 216.893 183.723 216.792 183.764C216.62 183.848 216.424 183.883 216.241 183.907C215.962 183.948 215.683 183.954 215.398 183.96C214.586 183.984 213.773 183.937 212.96 183.865C210.961 183.676 208.974 183.314 206.993 182.976C206.424 182.875 205.854 182.78 205.285 182.691C205.03 182.649 204.775 182.62 204.52 182.566C204.17 182.501 203.826 182.406 203.493 182.276C202.604 181.938 201.809 181.386 201.085 180.769C200.219 180.033 199.442 179.209 198.659 178.39C197.793 177.477 196.921 176.563 195.972 175.727C195.005 174.873 193.961 174.096 192.822 173.485C191.962 173.022 191.049 172.654 190.105 172.393C189.589 172.251 189.062 172.15 188.534 172.055C187.804 171.913 187.068 171.782 186.333 171.652C185.099 171.438 183.859 171.225 182.637 170.922C181.647 170.673 180.674 170.365 179.731 169.979C179.44 169.861 179.156 169.742 178.871 169.611C178.699 169.534 178.527 169.457 178.361 169.368C177.951 169.149 177.56 168.888 177.174 168.621C176.7 168.295 176.243 167.956 175.78 167.618C174.416 166.622 173.034 165.619 171.492 164.919C170.584 164.504 169.623 164.19 168.633 164.101C167.743 164.018 166.847 164.107 165.969 164.279C164.931 164.48 163.923 164.795 162.926 165.139C162.072 165.435 161.224 165.756 160.37 166.064C159.777 166.284 159.183 166.491 158.578 166.675C158.578 165.685 158.258 164.706 157.653 163.893C157.072 163.104 156.265 162.517 155.411 162.054C154.634 161.639 153.821 161.307 152.949 161.147C151.905 160.957 150.826 161.005 149.799 161.289C149.034 161.497 148.305 161.835 147.64 162.262C146.484 163.003 145.517 164.006 144.71 165.115C143.921 166.189 143.281 167.375 142.764 168.603C142.45 169.35 142.183 170.116 141.976 170.899C141.827 171.444 141.715 171.996 141.655 172.559C141.584 173.236 141.59 173.924 141.643 174.606C141.786 176.451 142.207 178.26 142.397 180.105C142.45 180.627 142.492 181.149 142.462 181.677C142.45 181.902 142.42 182.139 142.355 182.359C142.29 182.359 142.231 182.353 142.171 182.347C141.964 182.329 141.762 182.305 141.56 182.276C140.754 182.151 139.953 182.009 139.128 181.961C138.245 181.908 137.355 181.961 136.483 182.151C135.279 182.424 134.146 182.964 133.167 183.705C132.734 184.031 132.331 184.387 131.957 184.773C131.417 185.33 130.943 185.947 130.563 186.624C129.916 187.774 129.56 189.05 129.323 190.337C129.145 191.286 129.044 192.253 128.855 193.196C128.807 193.439 128.754 193.682 128.677 193.92C128.653 194.003 128.611 194.086 128.576 194.169C128.457 194.145 128.344 194.103 128.238 194.062C128.006 193.967 127.781 193.854 127.556 193.73C126.85 193.35 126.173 192.899 125.479 192.49C124.762 192.057 124.02 191.654 123.237 191.351C122.199 190.948 121.09 190.728 119.975 190.805C119.625 190.829 119.275 190.883 118.931 190.966C118.492 191.072 118.059 191.227 117.65 191.428C117.341 191.577 117.056 191.749 116.784 191.95C116.226 192.383 115.775 192.941 115.419 193.552C115.158 194.003 114.945 194.477 114.743 194.952C114.541 195.414 114.352 195.877 114.12 196.322C113.996 196.565 113.859 196.802 113.675 197.004C113.598 197.01 113.527 197.016 113.45 197.016C112.833 197.022 112.216 196.968 111.605 196.903C110.775 196.814 109.956 196.696 109.132 196.559C106.949 196.197 104.772 195.735 102.636 195.147C101.788 194.91 100.934 194.655 100.104 194.353C100.05 194.335 100.003 194.311 99.9494 194.293C100.121 194.068 100.293 193.848 100.46 193.623C100.827 193.131 101.183 192.626 101.48 192.087C101.931 191.268 102.245 190.366 102.328 189.429C102.364 189.038 102.358 188.646 102.316 188.261C102.269 187.857 102.18 187.46 102.049 187.068C101.865 186.541 101.61 186.042 101.29 185.586C100.786 184.856 100.133 184.221 99.3977 183.729C98.7452 183.296 98.0216 182.958 97.286 182.679C95.8506 182.133 94.3439 181.777 92.855 181.398C91.9594 181.166 91.0637 180.935 90.1917 180.644C89.9129 180.549 89.6401 180.449 89.3672 180.33C89.1774 180.247 88.9876 180.152 88.8096 180.039C88.7206 179.915 88.6376 179.79 88.5546 179.666C88.3588 179.375 88.1631 179.078 87.9732 178.782C87.3623 177.827 86.7869 176.848 86.2234 175.863C84.3371 172.571 82.5279 169.172 79.8231 166.462C78.874 165.513 77.8359 164.658 76.703 163.929C76.442 163.763 76.1751 163.603 75.9081 163.448C75.831 163.407 75.7539 163.365 75.6768 163.318C75.6353 163.294 75.6768 163.318 75.4633 163.205C74.8701 162.885 74.2354 162.742 73.6066 162.748C73.144 162.654 72.6754 162.606 72.2008 162.612C71.1687 162.624 70.1603 162.879 69.1875 163.211C68.9502 163.294 68.707 163.377 68.4698 163.46C68.4698 163.419 68.4638 163.383 68.4638 163.342C68.4579 162.802 68.5054 162.262 68.5469 161.728C68.5884 161.182 68.6299 160.643 68.6477 160.097C68.6774 159.231 68.6299 158.353 68.4223 157.511C68.1673 156.461 67.6512 155.47 66.9631 154.64C66.6428 154.248 66.281 153.898 65.8835 153.578C65.581 153.329 65.2548 153.109 64.9167 152.908C63.0778 151.828 60.9721 151.514 58.9019 151.182C58.3918 151.099 57.8817 151.016 57.3775 150.903C57.0038 150.826 56.6241 150.731 56.2742 150.582C56.1793 150.547 56.0844 150.499 55.9894 150.446C56.3394 149.544 56.4521 148.566 56.3631 147.599C56.2979 146.905 56.1496 146.211 55.8945 145.558C55.5505 144.68 55.0285 143.886 54.4472 143.144C53.6227 142.106 52.6736 141.169 51.7008 140.279C50.3306 139.022 48.8892 137.847 47.4418 136.679C46.6351 136.032 45.8225 135.391 45.0276 134.727C44.7192 134.472 44.4107 134.211 44.1201 133.938C43.9777 133.808 43.8413 133.665 43.6989 133.529C43.432 133.28 43.1473 133.036 42.8566 132.817C41.8126 132.04 40.6144 131.5 39.3332 131.251C38.2596 131.043 37.1563 131.043 36.0708 131.18C35.1276 131.304 34.1963 131.524 33.2769 131.755C32.5532 131.939 31.8296 132.135 31.0881 132.23C30.7144 132.277 30.317 132.307 29.9492 132.2C29.8484 132.17 29.7535 132.123 29.6586 132.076V132.07C29.5637 131.998 29.4865 131.898 29.4154 131.797C29.2493 131.571 29.1069 131.322 28.9824 131.067C28.5078 130.112 28.1875 129.074 27.9087 128.048C27.4816 126.506 27.1613 124.94 26.8588 123.374C26.3783 120.9 25.9631 118.421 25.3937 115.965C25.0674 114.547 24.6878 113.13 24.1717 111.771C23.7387 110.632 23.1989 109.517 22.4515 108.55C22.155 108.165 21.8228 107.815 21.4669 107.489C20.5534 106.64 19.5153 105.94 18.5485 105.157C18.2341 104.908 17.9197 104.647 17.6409 104.363C17.5935 104.315 17.5519 104.268 17.5104 104.22C17.5401 104.167 17.5697 104.119 17.5994 104.066C17.807 103.74 18.0383 103.425 18.2756 103.117C18.9756 102.203 19.7467 101.337 20.5 100.46C20.9271 99.9553 21.3542 99.457 21.7694 98.941C22.066 98.5792 22.3626 98.2114 22.6473 97.8377C24.498 95.4175 26.1767 92.5525 26.0462 89.4028C26.0284 88.8986 25.9631 88.4003 25.8504 87.9139C25.625 86.9471 25.1979 86.0395 24.6937 85.1913C23.6853 83.4889 22.2973 82.0534 20.6958 80.8908C19.367 79.9239 17.9078 79.1469 16.4368 78.4173C15.0369 77.7232 13.6133 77.0648 12.2905 76.2344C11.7685 75.9141 11.2762 75.5522 10.8194 75.143C10.6059 74.9531 10.3983 74.7515 10.2085 74.532C10.2441 74.4311 10.2797 74.3362 10.3212 74.2354C10.4754 73.8439 10.6296 73.4406 10.7483 73.0372C10.9262 72.45 11.0508 71.8449 11.0923 71.2339C11.122 70.8247 11.1101 70.4094 11.0745 70.0002C11.638 70.4094 12.2549 70.7357 12.9549 70.9196C13.2337 70.9908 13.5184 71.0382 13.8031 71.056C14.1234 71.0797 14.4437 71.0679 14.764 71.0204C15.286 70.9492 15.8021 70.7831 16.2826 70.5577C16.7393 70.3383 17.1664 70.0595 17.5519 69.7273C18.2578 69.1045 18.7917 68.3096 19.1654 67.4495C19.462 66.7792 19.6636 66.0734 19.8297 65.3675C19.9424 64.8811 20.0314 64.3947 20.1322 63.9083C20.2034 63.5642 20.2805 63.2202 20.3932 62.888C20.4051 62.8762 20.417 62.8643 20.4288 62.8524C20.6127 62.6686 20.8025 62.4906 20.9923 62.3127C21.4906 61.844 21.9948 61.3932 22.5168 60.9484C24.5395 59.2222 26.7164 57.6622 29.012 56.3038C31.0051 55.1294 33.1049 54.0972 35.3115 53.3795C35.8513 53.2015 36.4029 53.0414 36.9605 52.9109C37.0791 52.8812 37.1978 52.8575 37.3105 52.8338C37.3698 52.8219 37.4291 52.8041 37.4884 52.7982C37.6189 52.8516 37.7376 52.9346 37.8562 53.0177C38.0757 53.1719 38.2833 53.338 38.4968 53.4981C38.7163 53.6642 38.9298 53.8303 39.1552 53.9905C39.3035 54.0972 39.4578 54.1921 39.6061 54.293C39.7484 54.382 39.8848 54.4769 40.0272 54.5599C40.1992 54.6548 40.3772 54.7319 40.5492 54.815C40.7034 54.8862 40.8517 54.9633 41.0059 55.0285C41.3737 55.1827 41.7593 55.2954 42.1448 55.3844C43.61 55.6988 45.1819 55.5149 46.5521 54.9039C47.4478 54.5065 48.2486 53.9015 48.8833 53.1541C49.3519 52.6084 49.7256 51.9974 50.034 51.3508C50.3069 50.7873 50.5323 50.206 50.7814 49.6307C50.8585 49.4468 50.9416 49.2629 51.0424 49.0849C51.1017 48.9782 51.1729 48.8655 51.2619 48.7824C51.2737 48.7824 51.2797 48.7824 51.2915 48.7765C51.3508 48.7646 51.4102 48.7468 51.4695 48.735C51.6296 48.7053 51.7957 48.6875 51.9618 48.6697C52.4779 48.6104 52.9939 48.5926 53.5159 48.557C55.1471 48.4621 56.8436 48.3197 58.2791 47.4596C58.5994 47.2698 58.9078 47.0444 59.1807 46.7894C59.3942 46.5936 59.5841 46.3801 59.7679 46.1665C59.9578 45.953 60.1357 45.7394 60.3137 45.52C60.8475 44.8616 61.3339 44.1675 61.8203 43.4735C62.3423 42.7202 62.8702 41.955 63.5168 41.3025C63.9083 40.911 64.3413 40.567 64.8158 40.2763C65.1183 40.0865 65.4268 39.9204 65.7471 39.7721C65.9073 39.695 66.0674 39.612 66.2394 39.5764C66.4352 39.5349 66.6369 39.5408 66.8326 39.5527C67.0639 39.5705 67.2894 39.6061 67.5148 39.6357C67.8766 39.6891 68.2384 39.7484 68.6062 39.7959C68.7545 39.8137 68.9146 39.8255 69.0689 39.8433C69.1934 39.8552 69.3239 39.873 69.4485 39.8789C69.6027 39.8908 69.7629 39.8908 69.9171 39.8908C70.0595 39.8967 70.2018 39.9026 70.3442 39.8967C70.7357 39.8967 71.1272 39.8552 71.5127 39.7959C72.533 39.6298 73.5177 39.2739 74.4133 38.746C75.2556 38.2477 76.009 37.6011 76.6555 36.8656C77.1241 36.3436 77.5334 35.7742 77.9308 35.1929C78.2808 34.6709 78.6189 34.137 78.9986 33.6328C79.2951 33.2295 79.657 32.838 80.1434 32.6719C80.6179 32.5117 81.1814 32.5888 81.6619 32.6837C82.5932 32.8736 83.4889 33.1998 84.3846 33.5083C86.2056 34.1311 88.0741 34.7124 90.0256 34.6234C90.429 34.6056 90.8323 34.5522 91.2298 34.4751C91.8763 34.3506 92.5051 34.1429 93.0982 33.8642C93.4482 33.6981 93.7745 33.4905 94.071 33.2354C94.7354 32.66 95.1862 31.8889 95.5184 31.0881C95.8446 30.2933 96.076 29.4688 96.3073 28.6502C96.3844 28.3773 96.4556 28.1045 96.5386 27.8316C96.5505 27.7901 96.5683 27.7486 96.5802 27.7011C96.77 27.5647 96.9776 27.446 97.1911 27.3452C97.8851 27.0249 98.6385 26.8351 99.3859 26.6809C101.67 26.2122 104.013 26.0462 106.279 25.4886C108.319 24.9903 110.354 24.1421 111.801 22.582C112.222 22.1253 112.578 21.6211 112.875 21.0813C113.082 20.6958 113.254 20.2983 113.414 19.889C113.45 19.8001 113.486 19.7111 113.527 19.628C113.527 19.6221 113.527 19.6162 113.533 19.6162C113.669 19.5391 113.812 19.4857 113.96 19.4323C114.346 19.3374 114.737 19.2721 115.123 19.1891C116.09 18.9874 117.056 18.768 117.982 18.4239C118.872 18.0977 119.72 17.635 120.378 16.935C120.74 16.5495 121.013 16.0987 121.226 15.6123C121.434 15.1496 121.582 14.6632 121.659 14.159C121.707 13.8209 121.731 13.4828 121.713 13.1388C121.671 12.1422 121.345 11.1754 120.811 10.339C120.526 9.8941 120.188 9.49075 119.821 9.11112C119.162 8.44084 118.409 7.88326 117.656 7.31974C117.934 7.28415 118.225 7.25449 118.51 7.24856Z" fill="#FF8800"/>
</svg>
    