<svg width="32" height="28" viewBox="0 0 32 28" fill="none" xmlns="http://www.w3.org/2000/svg">
<path d="M5.82756 15.2443H4.60771L5.47664 16.1005L14.8742 25.3599L15.2251 25.0037L14.8742 25.3599C15.3659 25.8443 15.3718 26.6356 14.8873 27.1273C14.4029 27.619 13.6114 27.6249 13.1197 27.1405L1.00308 15.2019L0.654157 15.5561L1.00308 15.2019C0.332306 14.541 0.332306 13.459 1.00308 12.798L0.652158 12.4419L1.00308 12.798L13.1197 0.859565L12.7695 0.504138L13.1197 0.859563C13.6114 0.375076 14.4029 0.380948 14.8873 0.872638C15.3718 1.36436 15.3659 2.15575 14.8742 2.64024L5.4882 11.8883L4.61928 12.7445H5.83913H29.7509C30.4411 12.7445 31.0008 13.3041 31.0008 13.9944C31.0008 14.6845 30.441 15.2443 29.7509 15.2443H5.82756Z" fill="#FFFDF9" stroke="#FFFDF9"/>
</svg>
