<svg width="55" height="58" viewBox="0 0 55 58" xmlns="http://www.w3.org/2000/svg" class="hover">
    <g clip-path="url(#clip0_51_84)">
    <path fill-rule="evenodd" clip-rule="evenodd" d="M54.4385 17.4035C54.4385 17.4035 53.9015 13.4055 52.2491 11.6501C50.1551 9.34127 47.8104 9.32632 46.7385 9.19256C39.0477 8.60168 27.4967 8.60168 27.4967 8.60168H27.4764C27.4764 8.60168 15.9306 8.60168 8.23563 9.19256C7.15969 9.33058 4.81807 9.34028 2.72506 11.6501C1.07162 13.4055 0.545858 17.4035 0.545858 17.4035C0.545858 17.4035 -0.0012207 22.0949 -0.0012207 26.7961V31.1922C-0.0012207 35.8837 0.545858 40.5849 0.545858 40.5849C0.545858 40.5849 1.0828 44.5827 2.72506 46.3414C4.81807 48.6502 7.56876 48.5753 8.79698 48.8215C13.2002 49.2647 27.5008 49.3984 27.5008 49.3984C27.5008 49.3984 39.0619 49.3769 46.7527 48.7969C47.8286 48.663 50.1692 48.6491 52.2632 46.3392C53.9167 44.5838 54.4526 40.5816 54.4526 40.5816C54.4526 40.5816 54.9998 35.8902 54.9998 31.189V26.7929C54.9887 22.1014 54.4415 17.4003 54.4415 17.4003L54.4385 17.4035ZM21.7994 36.526V20.2251L36.6573 28.4028L21.7994 36.526Z" fill="#FF8800"/>
    </g>
    <defs>
    <clipPath id="clip0_51_84">
    <rect width="55" height="58" fill="white"/>
    </clipPath>
    </defs>
    </svg>
    