<?xml version="1.0" encoding="UTF-8" standalone="no"?>
<!DOCTYPE svg PUBLIC "-//W3C//DTD SVG 1.1//EN" "http://www.w3.org/Graphics/SVG/1.1/DTD/svg11.dtd">
<svg width="100%" height="100%" viewBox="0 0 3508 2481" version="1.1" xmlns="http://www.w3.org/2000/svg" xmlns:xlink="http://www.w3.org/1999/xlink" xml:space="preserve" xmlns:serif="http://www.serif.com/" style="fill-rule:evenodd;clip-rule:evenodd;stroke-linejoin:round;stroke-miterlimit:2;">
    <g transform="matrix(3.81362,0,0,3.81362,-7130.02,-1685.28)">
        <path d="M2358.45,967.513C2376.02,974.441 2395.59,977.865 2417.14,977.865C2437.8,977.865 2456.05,974.853 2471.86,968.712C2486.79,962.916 2498.01,955.118 2505.3,945.02C2512.34,935.259 2515.9,924.618 2515.9,913.075C2515.9,901.544 2512.61,891.459 2505.92,882.853C2498.84,873.739 2487.02,866.31 2470.74,860.116C2470.71,860.108 2470.69,860.099 2470.67,860.091C2459.23,855.629 2433.9,848.737 2394.72,839.329C2386.87,837.444 2379.96,835.579 2373.8,833.736C2370.09,832.628 2367.55,829.22 2367.55,825.353L2367.55,766.987C2367.55,764.286 2368.8,761.736 2370.93,760.078C2373.07,758.421 2375.85,757.841 2378.46,758.507C2388.52,761.066 2399.79,763.675 2412.13,766.466C2459.53,777.188 2492.03,786.633 2509.66,794.65C2509.68,794.656 2509.69,794.663 2509.7,794.669C2536.58,807.055 2556.31,822.88 2569.12,841.879C2582.08,861.118 2588.63,883.264 2588.63,908.349C2588.63,933.064 2581.59,956.364 2567.43,978.228C2553.37,999.951 2533.22,1016.91 2506.88,1028.98C2481.09,1040.8 2452.07,1046.76 2419.8,1046.76C2381.39,1046.76 2348.9,1041.36 2322.29,1030.76C2319.55,1029.66 2317.54,1027.26 2316.95,1024.36C2316.37,1021.47 2317.28,1018.47 2319.39,1016.4C2331.05,1004.89 2339.79,991.624 2345.57,976.578C2346.06,975.324 2346.53,974.048 2346.98,972.748C2347.77,970.506 2349.44,968.681 2351.6,967.694C2353.76,966.706 2356.24,966.641 2358.45,967.513ZM2375.28,583.164C2375.73,583.111 2376.18,583.06 2376.63,583.009C2385.53,582.012 2394.7,581.512 2404.15,581.512C2437.53,581.512 2466.96,586.953 2492.46,597.705C2518.69,608.767 2538.81,625.104 2552.93,646.595C2566.99,667.996 2574.58,692.219 2575.62,719.285C2575.81,723.99 2572.23,727.995 2567.54,728.349L2512.6,732.484C2507.89,732.838 2503.76,729.392 2503.25,724.697C2500.58,699.956 2491.82,681.137 2476.42,668.499C2460.66,655.569 2437.29,649.516 2406.51,649.516C2396.03,649.516 2386.18,649.842 2377.19,650.757C2374.73,651.007 2372.28,650.204 2370.44,648.545C2368.6,646.886 2367.55,644.527 2367.55,642.052L2367.55,591.854C2367.55,587.418 2370.88,583.684 2375.28,583.164ZM2598.72,821.683L2598.72,593.274C2598.72,588.441 2602.64,584.524 2607.47,584.524L2667.32,584.524C2672.15,584.524 2676.07,588.441 2676.07,593.274L2676.07,1037.34C2676.07,1042.18 2672.15,1046.09 2667.32,1046.09L2607.47,1046.09C2602.64,1046.09 2598.72,1042.18 2598.72,1037.34L2598.72,993.414C2598.72,990.993 2599.72,988.68 2601.49,987.025C2608.2,980.751 2614.02,973.789 2618.98,966.138C2631.21,947.243 2637.36,927.128 2637.36,905.769C2637.36,884.387 2631.89,865.479 2620.84,849.08C2615.79,841.592 2609.46,834.711 2601.88,828.415C2599.88,826.753 2598.72,824.285 2598.72,821.683ZM2430.98,514.622L2453.02,479.675C2454.63,477.134 2457.42,475.593 2460.42,475.593L2514.84,475.593C2518.19,475.593 2521.24,477.502 2522.71,480.512C2524.17,483.521 2523.79,487.103 2521.73,489.738L2461.71,566.368C2460.05,568.486 2457.51,569.723 2454.82,569.723L2403.61,569.723C2400.86,569.723 2398.27,568.43 2396.62,566.231L2339,489.601C2337.01,486.95 2336.68,483.401 2338.17,480.434C2339.65,477.467 2342.68,475.593 2345.99,475.593L2400.94,475.593C2403.91,475.593 2406.67,477.096 2408.29,479.585L2430.98,514.622ZM2276.51,581.894L2334.81,581.894C2339.64,581.894 2343.56,585.811 2343.56,590.644L2343.56,845.171C2343.56,890.772 2338.27,926.965 2327.95,953.789C2317.27,981.562 2298.06,1004.21 2270.18,1021.63C2242.84,1038.7 2207.02,1047.45 2162.62,1047.45C2119.64,1047.45 2084.51,1039.87 2057.18,1025.05C2029.1,1009.84 2009.08,987.797 1997.08,958.969C1985.51,931.198 1979.58,893.281 1979.58,845.171L1979.58,590.644C1979.58,585.811 1983.49,581.894 1988.33,581.894L2046.62,581.894C2051.46,581.894 2055.38,585.811 2055.38,590.644L2055.38,844.87C2055.38,881.678 2058.6,908.827 2065.44,926.267C2071.8,942.493 2082.76,954.984 2098.27,963.769C2114.41,972.915 2134.18,977.357 2157.51,977.357C2197.3,977.357 2225.86,969.007 2242.78,950.972C2260.01,932.613 2267.76,897.108 2267.76,844.87L2267.76,590.644C2267.76,585.811 2271.68,581.894 2276.51,581.894Z" style="fill:rgb(7,73,152);"/>
    </g>
</svg>
