<svg width="40" height="55" viewBox="0 0 40 55" xmlns="http://www.w3.org/2000/svg" class="hover">
    <path d="M19.9712 0C8.98942 0 0.0883789 9.27865 0.0883789 20.724C0.0883789 32.1693 7.30973 33 19.9712 55C32.5962 33 39.8566 32.1745 39.8566 20.724C39.8566 9.27344 30.9556 0 19.9712 0ZM19.9712 28.5573C19.4712 28.5469 18.9738 28.487 18.4816 28.3802C17.992 28.2708 17.5155 28.1172 17.0545 27.9141C16.5962 27.7135 16.1587 27.4688 15.7472 27.1797C15.3332 26.8906 14.953 26.5651 14.604 26.2031C14.255 25.8385 13.9452 25.4453 13.6743 25.0182C13.4035 24.5938 13.1743 24.1458 12.9894 23.6771C12.8071 23.2083 12.6691 22.724 12.5806 22.2266C12.492 21.7292 12.4504 21.2292 12.4608 20.724C12.4504 20.2188 12.492 19.7188 12.5806 19.2214C12.6717 18.7266 12.8071 18.2422 12.992 17.7734C13.1769 17.3021 13.4035 16.8568 13.6769 16.4323C13.9478 16.0078 14.2577 15.612 14.6066 15.25C14.9556 14.8854 15.3358 14.5599 15.7472 14.2734C16.1613 13.9844 16.5962 13.7396 17.0571 13.5391C17.5181 13.3359 17.992 13.1823 18.4842 13.0729C18.9738 12.9661 19.4712 12.9063 19.9712 12.8984C20.4738 12.9063 20.9712 12.9661 21.4608 13.0729C21.953 13.1823 22.4269 13.3359 22.8879 13.5391C23.3488 13.7396 23.7837 13.9844 24.1978 14.2734C24.6092 14.5599 24.9894 14.8854 25.3384 15.25C25.6873 15.612 25.9972 16.0078 26.2681 16.4323C26.5415 16.8568 26.7681 17.3021 26.953 17.7734C27.1379 18.2422 27.2733 18.7266 27.3644 19.2214C27.453 19.7188 27.4946 20.2188 27.4842 20.724C27.4946 21.2292 27.453 21.7292 27.3644 22.2266C27.2759 22.724 27.1379 23.2083 26.9556 23.6771C26.7707 24.1458 26.5415 24.5938 26.2707 25.0182C25.9998 25.4453 25.6899 25.8385 25.341 26.2031C24.992 26.5651 24.6118 26.8906 24.1978 27.1797C23.7863 27.4688 23.3488 27.7135 22.8905 27.9141C22.4295 28.1172 21.953 28.2708 21.4634 28.3802C20.9712 28.487 20.4738 28.5469 19.9712 28.5573Z" fill="#FF8800"/>
    </svg>
    